<?xml version="1.0" standalone="no"?>

<!DOCTYPE svg PUBLIC "-//W3C//DTD SVG 20010904//EN"

"http://www.w3.org/TR/2001/REC-SVG-20010904/DTD/svg10.dtd">

<svg version="1.0" xmlns="http://www.w3.org/2000/svg"

width="922.000000px" height="168.000000px" viewBox="0 0 922.000000 168.000000"

preserveAspectRatio="xMidYMid meet">

  

<g transform="translate(0.000000,168.000000) scale(0.100000,-0.100000)"

fill="#000000" stroke="none">

<path d="M20 840 l0 -840 4580 0 4580 0 0 840 0 840 -4580 0 -4580 0 0 -840z

m2908 3 l-3 -768 -1417 -3 -1418 -2 0 770 0 770 1420 0 1420 0 -2 -767z m5824

568 c103 -51 180 -146 190 -236 l3 -30 -87 -3 -86 -3 -7 31 c-9 41 -58 96

-106 121 -49 25 -142 34 -195 20 -22 -6 -59 -24 -82 -41 -33 -24 -44 -40 -57

-84 -20 -69 -12 -117 28 -163 41 -46 74 -61 278 -127 161 -51 181 -60 227

-101 74 -66 97 -120 97 -225 0 -78 -3 -90 -35 -149 -69 -128 -190 -191 -365

-191 -222 0 -379 112 -411 293 l-6 38 87 -3 88 -3 13 -44 c46 -155 288 -203

417 -83 39 37 61 116 48 173 -17 74 -77 121 -202 159 -227 69 -289 92 -331

124 -121 93 -144 292 -48 424 40 56 92 93 169 120 58 20 81 22 186 19 113 -3

124 -5 187 -36z m-4992 -36 l0 -65 -245 0 -245 0 0 -200 0 -200 220 0 220 0 0

-65 0 -65 -220 0 -220 0 0 -205 0 -205 245 0 245 0 0 -65 0 -65 -325 0 -325 0

0 600 0 600 325 0 325 0 0 -65z m338 -12 c16 -43 100 -275 188 -516 87 -240

161 -432 163 -425 2 7 86 238 187 513 l182 500 86 3 86 3 -19 -48 c-10 -26

-112 -297 -226 -600 l-209 -553 -92 0 c-78 0 -93 3 -99 17 -3 10 -103 272

-220 583 -117 311 -217 573 -220 583 -6 15 1 17 78 17 l85 0 30 -77z m1702 12

l0 -65 -240 0 -240 0 0 -200 0 -200 215 0 215 0 0 -65 0 -65 -215 0 -215 0 0

-205 0 -205 240 0 240 0 0 -65 0 -65 -320 0 -320 0 0 600 0 600 320 0 320 0 0

-65z m708 -404 l307 -465 3 467 2 467 80 0 80 0 0 -600 0 -600 -79 0 -79 0

-308 469 -309 469 -3 -469 -2 -469 -80 0 -80 0 0 600 0 601 81 -3 81 -3 306

-464z m1482 404 l0 -65 -165 0 -165 0 0 -535 0 -535 -80 0 -80 0 0 535 0 535

-165 0 -165 0 0 65 0 65 410 0 410 0 0 -65z"/>

<path d="M240 840 l0 -600 120 0 120 0 0 600 0 600 -120 0 -120 0 0 -600z"/>

<path d="M720 840 l0 -600 120 0 120 0 0 230 0 230 133 0 c205 0 302 28 393

112 66 61 97 134 102 243 3 74 0 100 -18 147 -28 74 -93 147 -165 182 -96 47

-165 56 -437 56 l-248 0 0 -600z m548 381 c46 -24 71 -65 79 -131 9 -75 -17

-133 -73 -166 -41 -24 -58 -27 -180 -32 l-134 -5 0 177 0 176 135 0 c114 0

142 -3 173 -19z"/>

<path d="M1760 1068 c1 -395 7 -481 40 -570 27 -73 111 -165 188 -206 204

-109 480 -71 623 86 113 124 119 155 119 660 l0 402 -120 0 -120 0 0 -398 c0

-455 -3 -475 -69 -535 -95 -86 -294 -78 -364 15 -52 67 -57 117 -57 535 l0

383 -120 0 -120 0 0 -372z"/>

</g>

</svg>